<svg xmlns="http://www.w3.org/2000/svg" width="133" height="118" viewBox="0 0 133 118">
  <g id="Group_24628" data-name="Group 24628" transform="translate(13505 -1424)">
    <g id="Group_24627" data-name="Group 24627" transform="translate(597)">
      <g id="Group_24624" data-name="Group 24624" transform="translate(-14102 1424)">
        <rect id="Rectangle_14414" data-name="Rectangle 14414" width="133" height="118" fill="#fff"/>
      </g>
    </g>
    <g id="Deutsche_Bahn_AG-Logo" transform="translate(-13485 1450)">
      <path id="Path_55282" data-name="Path 55282" d="M83.7,0H9.3A9.327,9.327,0,0,0,0,9.3V55.8a9.327,9.327,0,0,0,9.3,9.3H83.7A9.347,9.347,0,0,0,93,55.707V9.3A9.327,9.327,0,0,0,83.7,0Z" fill="#f01414"/>
      <path id="Path_55283" data-name="Path 55283" d="M85.7,55.255A2.553,2.553,0,0,1,83.222,57.9H9.778A2.539,2.539,0,0,1,7.3,55.346V9.745A2.539,2.539,0,0,1,9.686,7.1H83.222A2.539,2.539,0,0,1,85.7,9.654Z" transform="translate(0 0)" fill="#fff"/>
      <path id="Path_55284" data-name="Path 55284" d="M28.781,53H13.8V12.089H28.781c10.612,0,16.408,6.61,16.408,20.277C45.189,44.157,41.177,52.911,28.781,53Zm6.51-19.83c0-8.218-.892-14.649-9.72-14.649H23.609V46.39h3.478C32.259,46.39,35.291,42.192,35.291,33.17ZM71.05,31.562A10.076,10.076,0,0,0,78.184,22c0-.893-.178-10-11.682-10H49.47V52.911H63.916c3.835,0,15.784,0,15.784-11.523C79.7,38.619,78.452,33.17,71.05,31.562ZM59.19,18.431h3.121c4.37,0,6.153,1.519,6.153,4.913,0,2.68-1.962,4.913-5.35,4.913H59.279V18.431ZM63.2,46.39H59.19V35.85h4.28c5.083,0,6.331,2.948,6.331,5.27,0,5.27-4.994,5.27-6.6,5.27Z" transform="translate(1)" fill="#f01414"/>
    </g>
  </g>
</svg>
