<svg xmlns="http://www.w3.org/2000/svg" width="396" height="118" viewBox="0 0 396 118">
  <g id="Group_24629" data-name="Group 24629" transform="translate(13921 -1424)">
    <g id="Group_24626" data-name="Group 24626">
      <g id="Group_24624" data-name="Group 24624" transform="translate(-13921 1424)">
        <rect id="Rectangle_14414" data-name="Rectangle 14414" width="396" height="118" fill="#fff"/>
      </g>
      <path id="DoorDash_Logo" d="M102.69,11.709v18.15H107.2a8.589,8.589,0,0,0,6.131-2.709,9.109,9.109,0,0,0,2.471-6.381,8.955,8.955,0,0,0-2.437-6.408,8.437,8.437,0,0,0-6.165-2.654h-4.506ZM107.2,6.018a14.554,14.554,0,0,1,14.758,14.75A14.585,14.585,0,0,1,107.2,35.556H97.256a.723.723,0,0,1-.713-.734V6.782a.725.725,0,0,1,.713-.736l9.942-.028Zm36.415,24.473a9.429,9.429,0,0,0,8.731-5.97,9.917,9.917,0,0,0-2.018-10.585,9.232,9.232,0,0,0-10.275-2.128,9.715,9.715,0,0,0-5.837,8.961,9.588,9.588,0,0,0,9.4,9.722m0-25.142a15.42,15.42,0,1,1-15.549,15.42,15.429,15.429,0,0,1,15.549-15.42M180.7,30.491a9.573,9.573,0,0,0,9.406-9.715,9.432,9.432,0,1,0-18.857-.007,9.868,9.868,0,0,0,2.768,6.877,9.306,9.306,0,0,0,6.68,2.845m0-25.142a15.421,15.421,0,1,1-15.6,15.42,15.4,15.4,0,0,1,15.6-15.42m36.2,6.36h-6.356V19.52h6.356a3.67,3.67,0,0,0,2.731-1.045,3.881,3.881,0,0,0,1.163-2.751,3.938,3.938,0,0,0-1.1-2.875,3.707,3.707,0,0,0-2.791-1.133v-.007ZM204.389,6.782a.727.727,0,0,1,.715-.736h11.967a9.576,9.576,0,0,1,9.834,9.708,9.577,9.577,0,0,1-5.119,8.649l5.519,10.045a.753.753,0,0,1,.028.785.707.707,0,0,1-.676.36h-4.844a.712.712,0,0,1-.648-.4l-5.319-9.941h-5.331V34.8a.723.723,0,0,1-.713.736h-4.666a.723.723,0,0,1-.713-.736l-.032-28.015Zm38.543,5.065V30h4.506a8.589,8.589,0,0,0,6.133-2.7,9.107,9.107,0,0,0,2.476-6.376,8.955,8.955,0,0,0-2.43-6.42,8.437,8.437,0,0,0-6.177-2.654l-4.508,0Zm4.506-5.7A14.563,14.563,0,0,1,262.2,20.923,14.563,14.563,0,0,1,247.438,35.7h-9.912a.723.723,0,0,1-.713-.736V6.923a.726.726,0,0,1,.713-.738l9.915-.035Zm33.507,7.218-3.487,9.706h6.968Zm-5.533,15.191-2.283,6.461a.713.713,0,0,1-.713.508h-4.952a.7.7,0,0,1-.651-.309.752.752,0,0,1-.062-.734l10.7-28.012a.713.713,0,0,1,.713-.485h5.54a.713.713,0,0,1,.715.485l10.7,28.013a.753.753,0,0,1-.064.734.7.7,0,0,1-.651.307h-4.949a.713.713,0,0,1-.713-.508l-2.283-6.461H275.411ZM300.856,14c0-4.638,3.894-8.649,10.043-8.649a12.518,12.518,0,0,1,8.919,3.459.745.745,0,0,1,0,1.08l-2.742,2.8a.7.7,0,0,1-1.011,0,7.1,7.1,0,0,0-4.758-1.931c-2.46,0-4.278,1.47-4.278,3.166,0,5.483,14.535,2.319,14.535,12.87-.007,5.347-3.931,9.392-10.868,9.392a14.339,14.339,0,0,1-10.37-4.288.745.745,0,0,1,0-1.08l2.653-2.732a.7.7,0,0,1,1.034,0,9.028,9.028,0,0,0,6.269,2.631c3.073,0,5.1-1.689,5.1-3.805,0-5.485-14.528-2.319-14.528-12.872m47.069-7.3V17.831h-12.3V6.745a.723.723,0,0,0-.713-.734h-4.667a.723.723,0,0,0-.713.734V34.753a.727.727,0,0,0,.713.736h4.666a.727.727,0,0,0,.713-.736V23.492h12.294V34.753a.727.727,0,0,0,.713.736h4.666a.725.725,0,0,0,.713-.736V6.745a.723.723,0,0,0-.713-.734h-4.667a.723.723,0,0,0-.7.734Zm-277.572,3A18.593,18.593,0,0,0,53.892,0H1.784A1.793,1.793,0,0,0,.138,1.1,1.766,1.766,0,0,0,.524,3.032L11.876,14.34A5.361,5.361,0,0,0,15.664,15.9H52.4a4.693,4.693,0,1,1,.1,9.385H27.169a1.793,1.793,0,0,0-1.651,1.1,1.766,1.766,0,0,0,.384,1.934L37.261,39.636a5.368,5.368,0,0,0,3.788,1.56H52.5c14.9,0,26.171-15.784,17.845-31.453" transform="translate(-13901.003 1462)" fill="#ff3008"/>
    </g>
  </g>
</svg>
